<svg width="19" height="19" viewBox="0 0 19 19" fill="none" xmlns="http://www.w3.org/2000/svg">
<path d="M9.14 18.28C14.1879 18.28 18.28 14.1879 18.28 9.14C18.28 4.09212 14.1879 0 9.14 0C4.09212 0 0 4.09212 0 9.14C0 14.1879 4.09212 18.28 9.14 18.28Z" fill="#828282"/>
<path d="M9.14001 4.42C10.68 4.42 10.86 4.43 11.47 4.45C12.03 4.48 12.34 4.57 12.54 4.65C12.81 4.75 13 4.88 13.2 5.08C13.4 5.28 13.53 5.47 13.63 5.74C13.71 5.94 13.8 6.25 13.83 6.81C13.86 7.42 13.86 7.60001 13.86 9.14001C13.86 10.68 13.85 10.86 13.83 11.47C13.8 12.03 13.71 12.34 13.63 12.54C13.53 12.81 13.4 13 13.2 13.2C13 13.4 12.81 13.53 12.54 13.63C12.34 13.71 12.03 13.8 11.47 13.83C10.86 13.86 10.68 13.86 9.14001 13.86C7.60001 13.86 7.42 13.85 6.81 13.83C6.25 13.8 5.94 13.71 5.74 13.63C5.47 13.53 5.28 13.4 5.08 13.2C4.88 13 4.75 12.81 4.65 12.54C4.57 12.34 4.48 12.03 4.45 11.47C4.42 10.86 4.42 10.68 4.42 9.14001C4.42 7.60001 4.43 7.42 4.45 6.81C4.48 6.25 4.57 5.94 4.65 5.74C4.75 5.47 4.88 5.28 5.08 5.08C5.28 4.88 5.47 4.75 5.74 4.65C5.94 4.57 6.25 4.48 6.81 4.45C7.42 4.43 7.60001 4.42 9.14001 4.42ZM9.14001 3.38C7.58001 3.38 7.38 3.39 6.77 3.41C6.16 3.44 5.74 3.54 5.37 3.68C4.99 3.83 4.67 4.02 4.35 4.34C4.03 4.67 3.83 4.99 3.69 5.37C3.55 5.74 3.45 6.15 3.42 6.77C3.39 7.38 3.38 7.58001 3.38 9.14001C3.38 10.7 3.39 10.9 3.41 11.51C3.44 12.12 3.54 12.54 3.68 12.91C3.83 13.29 4.02 13.61 4.34 13.93C4.66 14.25 4.98 14.45 5.36 14.59C5.73 14.73 6.14001 14.83 6.76 14.86C7.37001 14.89 7.57 14.89 9.13 14.89C10.69 14.89 10.89 14.88 11.5 14.86C12.11 14.83 12.53 14.73 12.9 14.59C13.28 14.44 13.6 14.25 13.92 13.93C14.24 13.61 14.44 13.29 14.58 12.91C14.72 12.54 14.82 12.13 14.85 11.51C14.88 10.9 14.88 10.7 14.88 9.14001C14.88 7.58001 14.87 7.38 14.85 6.77C14.82 6.16 14.72 5.74 14.58 5.37C14.43 4.99 14.24 4.67 13.92 4.35C13.6 4.03 13.28 3.83 12.9 3.69C12.53 3.55 12.12 3.45 11.5 3.42C10.9 3.39 10.7 3.38 9.14001 3.38Z" fill="white"/>
<path d="M9.14 6.17993C7.51 6.17993 6.19 7.49993 6.19 9.12993C6.19 10.7599 7.51 12.0799 9.14 12.0799C10.77 12.0799 12.09 10.7599 12.09 9.12993C12.09 7.49993 10.77 6.17993 9.14 6.17993ZM9.14 11.0599C8.08 11.0599 7.22 10.1999 7.22 9.13993C7.22 8.07993 8.08 7.21993 9.14 7.21993C10.2 7.21993 11.06 8.07993 11.06 9.13993C11.06 10.1999 10.2 11.0599 9.14 11.0599Z" fill="white"/>
<path d="M12.21 6.76C12.5911 6.76 12.9 6.45108 12.9 6.07C12.9 5.68893 12.5911 5.38 12.21 5.38C11.8289 5.38 11.52 5.68893 11.52 6.07C11.52 6.45108 11.8289 6.76 12.21 6.76Z" fill="white"/>
</svg>
