<svg width="19" height="19" viewBox="0 0 19 19" fill="none" xmlns="http://www.w3.org/2000/svg">
<path d="M9.14 18.28C14.1879 18.28 18.28 14.1879 18.28 9.14C18.28 4.09212 14.1879 0 9.14 0C4.09212 0 0 4.09212 0 9.14C0 14.1879 4.09212 18.28 9.14 18.28Z" fill="#828282"/>
<path d="M7.29001 14.4C11.75 14.4 14.19 10.7 14.19 7.50004C14.19 7.39004 14.19 7.29004 14.18 7.19004C14.65 6.85004 15.07 6.42004 15.39 5.93004C14.96 6.12004 14.49 6.25004 14 6.31004C14.5 6.01004 14.89 5.53004 15.07 4.97004C14.6 5.25004 14.08 5.45004 13.53 5.56004C13.09 5.09004 12.46 4.79004 11.76 4.79004C10.42 4.79004 9.33001 5.88004 9.33001 7.22004C9.33001 7.41004 9.35001 7.60004 9.39001 7.77004C7.37001 7.67004 5.58001 6.70004 4.39001 5.23004C4.18001 5.59004 4.06001 6.01004 4.06001 6.45004C4.06001 7.29004 4.49001 8.04004 5.14001 8.47004C4.74001 8.46004 4.37001 8.35004 4.04001 8.17004C4.04001 8.18004 4.04001 8.19004 4.04001 8.20004C4.04001 9.38004 4.88001 10.36 5.99001 10.58C5.79001 10.64 5.57001 10.67 5.35001 10.67C5.19001 10.67 5.04001 10.65 4.89001 10.63C5.20001 11.59 6.09001 12.3 7.16001 12.32C6.33001 12.97 5.28001 13.36 4.15001 13.36C3.95001 13.36 3.76001 13.35 3.57001 13.33C4.65001 14 5.92001 14.4 7.29001 14.4Z" fill="white"/>
</svg>
