<?xml version="1.0" encoding="UTF-8"?><svg id="_圖層_2" xmlns="http://www.w3.org/2000/svg" viewBox="0 0 13.08 13.08"><defs><style>.cls-1{fill:#adadad;}</style></defs><g id="_圖層_1-2"><path class="cls-1" d="M6.54,1.18c1.75,0,1.95,0,2.64,.04,.64,.03,.98,.14,1.21,.23,.31,.12,.52,.26,.75,.49s.37,.45,.49,.75c.09,.23,.2,.58,.23,1.21,.03,.69,.04,.9,.04,2.64s0,1.95-.04,2.64c-.03,.64-.14,.98-.23,1.21-.12,.31-.26,.52-.49,.75-.23,.23-.45,.37-.75,.49-.23,.09-.58,.2-1.21,.23-.69,.03-.9,.04-2.64,.04s-1.95,0-2.64-.04c-.64-.03-.98-.14-1.21-.23-.31-.12-.52-.26-.75-.49-.23-.23-.37-.45-.49-.75-.09-.23-.2-.58-.23-1.21-.03-.69-.04-.9-.04-2.64s0-1.95,.04-2.64c.03-.64,.14-.98,.23-1.21,.12-.31,.26-.52,.49-.75,.23-.23,.45-.37,.75-.49,.23-.09,.58-.2,1.21-.23,.69-.03,.9-.04,2.64-.04m0-1.18c-1.78,0-2,0-2.7,.04-.7,.03-1.17,.14-1.59,.3-.43,.17-.79,.39-1.16,.75-.36,.36-.59,.73-.75,1.16-.16,.42-.27,.89-.3,1.59-.03,.7-.04,.92-.04,2.7s0,2,.04,2.7c.03,.7,.14,1.17,.3,1.59,.17,.43,.39,.79,.75,1.16,.36,.36,.73,.59,1.16,.75,.42,.16,.89,.27,1.59,.3,.7,.03,.92,.04,2.7,.04s2,0,2.7-.04c.7-.03,1.17-.14,1.59-.3,.43-.17,.79-.39,1.16-.75,.36-.36,.59-.73,.75-1.16,.16-.42,.27-.89,.3-1.59,.03-.7,.04-.92,.04-2.7s0-2-.04-2.7c-.03-.7-.14-1.17-.3-1.59-.17-.43-.39-.79-.75-1.16-.36-.36-.73-.59-1.16-.75-.42-.16-.89-.27-1.59-.3-.7-.03-.92-.04-2.7-.04Zm0,3.18c-1.85,0-3.36,1.5-3.36,3.36s1.5,3.36,3.36,3.36,3.36-1.5,3.36-3.36-1.5-3.36-3.36-3.36Zm0,5.54c-1.2,0-2.18-.98-2.18-2.18s.98-2.18,2.18-2.18,2.18,.98,2.18,2.18-.98,2.18-2.18,2.18ZM10.82,3.05c0,.43-.35,.78-.78,.78s-.78-.35-.78-.78,.35-.78,.78-.78,.78,.35,.78,.78Z"/></g></svg>