<?xml version="1.0" encoding="UTF-8"?><svg id="_圖層_2" xmlns="http://www.w3.org/2000/svg" viewBox="0 0 149.06 89.68"><defs><style>.cls-1{fill:#231815;}</style></defs><g id="_圖層_1-2"><g><g><path class="cls-1" d="M10.46,13.96c-1.63-1.83-3.35-3.88-5.26-6.11-.49-.57-.78-.65-1.15-.59v3.99c0,1.85,.21,1.99,1.95,2.12v.59H.49v-.59c1.61-.13,1.8-.27,1.8-2.12V3.04c0-1.91-.19-2.02-1.87-2.14V.31H5.9V.9c-1.63,.13-1.85,.27-1.85,2.14v3.67c.47-.13,.89-.42,1.49-.97,1.17-1.11,2.61-2.56,3.56-3.72,.62-.76,.62-.97-.36-1.07l-.47-.06V.31h5.09V.9c-1.61,.15-2.1,.36-3.46,1.57-.81,.73-2.31,2.23-3.75,3.67,1.61,1.97,3.92,4.58,4.98,5.71,1.12,1.2,1.55,1.39,2.59,1.51v.59h-3.27Z"/><path class="cls-1" d="M21.25,0c3.58,0,6.83,2.77,6.83,6.97,0,4.54-3.2,7.31-7.08,7.31s-6.89-2.96-6.89-6.99c0-3.78,2.67-7.29,7.13-7.29h.02Zm-.47,.76c-2.35,0-4.52,2.02-4.52,5.94s2.18,6.82,5.17,6.82c2.35,0,4.48-1.95,4.48-5.98,0-4.43-2.33-6.78-5.11-6.78h-.02Z"/><path class="cls-1" d="M37.58,0c3.58,0,6.83,2.77,6.83,6.97,0,4.54-3.2,7.31-7.08,7.31s-6.89-2.96-6.89-6.99c0-3.78,2.67-7.29,7.13-7.29h.02Zm-.47,.76c-2.35,0-4.52,2.02-4.52,5.94s2.18,6.82,5.17,6.82c2.35,0,4.48-1.95,4.48-5.98,0-4.43-2.33-6.78-5.11-6.78h-.02Z"/><path class="cls-1" d="M58.56,14.13c-.25,0-.49,0-.74-.02-1.59-.08-2.48-.55-3.44-1.91-.74-1.03-1.51-2.33-2.14-3.36-.36-.59-.72-.84-1.82-.84h-.68v3.34c0,1.78,.19,1.91,1.89,2.04v.59h-5.58v-.59c1.74-.13,1.93-.25,1.93-2.04V2.9c0-1.78-.17-1.85-1.82-1.99V.31h5.26c1.55,0,2.59,.19,3.39,.71,.85,.55,1.4,1.49,1.4,2.75,0,1.81-1.12,2.92-2.69,3.59,.36,.69,1.25,2.1,1.89,3.04,.76,1.09,1.19,1.64,1.72,2.18,.57,.63,1.06,.86,1.53,.99l-.08,.55Zm-7.81-6.82c1.08,0,1.78-.17,2.31-.59,.83-.63,1.17-1.47,1.17-2.6,0-2.27-1.51-3.11-3.12-3.11-.62,0-.98,.08-1.15,.21-.15,.1-.23,.36-.23,.92V7.31h1.02Z"/><path class="cls-1" d="M67.7,13.96v-.59c1.34-.17,1.53-.34,1.25-1.15-.28-.82-.7-1.95-1.17-3.23h-4.52c-.34,.94-.66,1.83-.93,2.71-.47,1.32-.28,1.53,1.32,1.68v.59h-4.6v-.59c1.34-.19,1.63-.31,2.38-2.16L65.81,.19l.66-.19c1.32,3.61,2.74,7.6,4.09,11.25,.68,1.81,.95,1.99,2.33,2.12v.59h-5.2Zm-2.08-11.23h-.04c-.68,1.81-1.36,3.63-1.99,5.35h3.9l-1.87-5.35Z"/><path class="cls-1" d="M87.47,8.21c-1.27,.19-1.36,.29-1.36,1.53v1.78c0,.73,.02,1.41,.15,1.97-1.32,.31-3.05,.78-4.75,.78-4.67,0-7.78-2.88-7.78-7.03,0-4.87,3.95-7.24,8.1-7.24,1.76,0,3.39,.46,4.07,.61,.06,.73,.17,1.89,.34,3.28l-.59,.13c-.51-2.56-2.12-3.25-4.14-3.25-3.25,0-5.62,2.35-5.62,6.24,0,3.02,1.8,6.55,5.9,6.55,.72,0,1.38-.15,1.85-.38,.42-.23,.68-.48,.68-1.36v-1.78c0-1.51-.15-1.64-2.23-1.81v-.57h5.39v.57Z"/><path class="cls-1" d="M99.64,10.65c-.13,.69-.55,2.67-.74,3.32h-10.22v-.59c1.93-.15,2.1-.31,2.1-2.02V3c0-1.89-.17-1.95-1.82-2.1V.31h9.46c0,.52,.11,1.95,.17,3.02l-.62,.1c-.19-.88-.4-1.34-.68-1.81-.3-.44-.87-.59-2.4-.59h-1.61c-.66,0-.7,.04-.7,.67V6.49h1.99c1.91,0,2.02-.17,2.29-1.57h.62v4.03h-.62c-.28-1.51-.42-1.64-2.27-1.64h-2.01v3.97c0,.99,.13,1.43,.51,1.7,.4,.25,1.15,.27,2.21,.27,1.61,0,2.21-.17,2.67-.71,.36-.42,.76-1.13,1.04-1.97l.64,.08Z"/></g><g><path class="cls-1" d="M14.83,51.13c-1.19,.06-1.7,.34-1.78,1.26-.08,.63-.13,1.57-.13,3.53v8.46h-.66L3.22,53.37h-.04v5.27c0,1.93,.06,2.94,.13,3.55,.11,1.07,.59,1.32,2.04,1.41v.59H.32v-.59c1.23-.06,1.76-.34,1.87-1.36,.06-.65,.13-1.66,.13-3.59v-4.62c0-1.53-.04-1.62-.42-2.12-.42-.53-.89-.69-1.89-.78v-.59H3.14l8.84,10.54h.06v-5.17c0-1.93-.08-2.9-.15-3.49-.11-.94-.62-1.22-2.08-1.3v-.59h5.01v.59Z"/><path class="cls-1" d="M23.37,50.23c3.58,0,6.83,2.77,6.83,6.97,0,4.54-3.2,7.31-7.08,7.31s-6.89-2.96-6.89-6.99c0-3.78,2.67-7.29,7.13-7.29h.02Zm-.47,.76c-2.35,0-4.52,2.02-4.52,5.94s2.18,6.82,5.18,6.82c2.35,0,4.47-1.95,4.47-5.98,0-4.43-2.33-6.78-5.11-6.78h-.02Z"/><path class="cls-1" d="M43.06,53.79c-.23-1.01-.42-1.53-.68-1.87-.34-.5-.7-.65-2.29-.65h-1.51v10.33c0,1.66,.17,1.87,2.18,2v.59h-6.09v-.59c1.93-.13,2.1-.34,2.1-2v-10.33h-1.32c-1.76,0-2.18,.17-2.46,.65-.25,.36-.42,.94-.68,1.87h-.62c.11-1.26,.21-2.62,.25-3.78h.42c.3,.48,.57,.53,1.17,.53h8.38c.57,0,.74-.13,1.08-.53h.45c0,.97,.11,2.5,.21,3.72l-.62,.06Z"/><path class="cls-1" d="M59.77,51.13c-1.74,.15-1.91,.25-1.91,1.99v8.48c0,1.76,.17,1.87,1.89,2v.59h-5.68v-.59c1.8-.13,1.99-.23,1.99-2v-4.2h-7.23v4.2c0,1.74,.17,1.87,1.91,2v.59h-5.58v-.59c1.7-.13,1.87-.23,1.87-2v-8.48c0-1.76-.17-1.85-1.91-1.99v-.59h5.49v.59c-1.61,.15-1.78,.25-1.78,1.99v3.4h7.23v-3.4c0-1.74-.17-1.85-1.82-1.99v-.59h5.54v.59Z"/><path class="cls-1" d="M61.47,64.19v-.59c1.74-.13,1.91-.25,1.91-2.04v-8.4c0-1.79-.17-1.91-1.91-2.04v-.59h5.62v.59c-1.74,.13-1.91,.25-1.91,2.04v8.4c0,1.8,.17,1.91,1.91,2.04v.59h-5.62Z"/><path class="cls-1" d="M83.25,51.13c-1.19,.06-1.7,.34-1.78,1.26-.08,.63-.13,1.57-.13,3.53v8.46h-.66l-9.04-11h-.04v5.27c0,1.93,.06,2.94,.13,3.55,.11,1.07,.59,1.32,2.04,1.41v.59h-5.03v-.59c1.23-.06,1.76-.34,1.87-1.36,.06-.65,.13-1.66,.13-3.59v-4.62c0-1.53-.04-1.62-.42-2.12-.42-.53-.89-.69-1.89-.78v-.59h3.14l8.84,10.54h.06v-5.17c0-1.93-.08-2.9-.15-3.49-.11-.94-.62-1.22-2.08-1.3v-.59h5.01v.59Z"/><path class="cls-1" d="M98.39,58.44c-1.27,.19-1.36,.29-1.36,1.53v1.78c0,.74,.02,1.41,.15,1.97-1.32,.31-3.05,.78-4.75,.78-4.67,0-7.78-2.88-7.78-7.03,0-4.87,3.95-7.24,8.1-7.24,1.76,0,3.39,.46,4.07,.61,.06,.74,.17,1.89,.34,3.28l-.59,.13c-.51-2.56-2.12-3.25-4.14-3.25-3.25,0-5.62,2.35-5.62,6.24,0,3.02,1.8,6.55,5.9,6.55,.72,0,1.38-.15,1.85-.38,.42-.23,.68-.48,.68-1.37v-1.78c0-1.51-.15-1.64-2.23-1.81v-.57h5.39v.57Z"/><path class="cls-1" d="M115.49,60.87c-.13,.69-.55,2.67-.74,3.32h-10.22v-.59c1.93-.15,2.1-.32,2.1-2.02v-8.36c0-1.89-.17-1.95-1.82-2.1v-.59h9.46c0,.53,.11,1.95,.17,3.02l-.62,.11c-.19-.88-.4-1.34-.68-1.81-.3-.44-.87-.59-2.4-.59h-1.61c-.66,0-.7,.04-.7,.67v4.77h1.99c1.91,0,2.01-.17,2.29-1.58h.61v4.03h-.61c-.28-1.51-.42-1.64-2.27-1.64h-2.02v3.97c0,.99,.13,1.43,.51,1.7,.4,.25,1.14,.27,2.21,.27,1.61,0,2.21-.17,2.67-.71,.36-.42,.76-1.13,1.04-1.97l.64,.08Z"/><path class="cls-1" d="M127.2,60.89c-.13,.65-.57,2.64-.76,3.3h-9.61v-.59c1.78-.13,1.95-.27,1.95-2.06v-8.4c0-1.79-.15-1.89-1.87-2.02v-.59h5.54v.59c-1.68,.13-1.87,.23-1.87,2.02v8.29c0,1.13,.11,1.55,.49,1.76,.42,.23,1.15,.27,2.04,.27,1.17,0,1.89-.11,2.38-.65,.36-.42,.76-1.09,1.08-2.06l.64,.13Z"/><path class="cls-1" d="M135.64,53.73c-.38-1.34-.93-2.79-2.78-2.79-1.63,0-2.35,1.18-2.35,2.31,0,1.53,1.02,2.25,2.69,3.11,1.65,.84,3.67,1.83,3.67,4.18,0,2.21-1.89,3.97-4.71,3.97-.87,0-1.55-.17-2.08-.32-.53-.19-.85-.34-1.04-.44-.17-.44-.45-2.25-.57-3.25l.62-.15c.34,1.28,1.29,3.4,3.48,3.4,1.59,0,2.54-.99,2.54-2.52s-1.17-2.29-2.76-3.13c-1.36-.71-3.5-1.76-3.5-4.14,0-2.02,1.63-3.74,4.37-3.74,.98,0,1.87,.23,2.67,.48,.08,.76,.19,1.57,.36,2.9l-.62,.13Z"/><path class="cls-1" d="M149.06,60.87c-.13,.69-.55,2.67-.74,3.32h-10.22v-.59c1.93-.15,2.1-.32,2.1-2.02v-8.36c0-1.89-.17-1.95-1.82-2.1v-.59h9.46c0,.53,.11,1.95,.17,3.02l-.62,.11c-.19-.88-.4-1.34-.68-1.81-.3-.44-.87-.59-2.4-.59h-1.61c-.66,0-.7,.04-.7,.67v4.77h1.99c1.91,0,2.02-.17,2.29-1.58h.62v4.03h-.62c-.28-1.51-.42-1.64-2.27-1.64h-2.01v3.97c0,.99,.13,1.43,.51,1.7,.4,.25,1.15,.27,2.21,.27,1.61,0,2.21-.17,2.67-.71,.36-.42,.76-1.13,1.04-1.97l.64,.08Z"/><path class="cls-1" d="M7.47,82.04c2.1,.32,3.75,1.24,3.75,3.34,0,1.41-.79,2.48-2.04,3.17-1.08,.59-2.48,.84-4.16,.84H.34v-.59c1.82-.13,1.95-.25,1.95-2.02v-8.46c0-1.74-.08-1.87-1.78-2v-.59H5.96c1.59,0,2.52,.25,3.18,.71,.76,.5,1.19,1.43,1.19,2.39,0,2-1.68,2.81-2.86,3.13v.06Zm-2.4-.25c2.33,0,3.31-.92,3.31-2.69,0-1.43-.81-2.69-2.82-2.69-.53,0-1,.08-1.21,.21-.19,.13-.28,.36-.28,1.05v4.12h1Zm-1,4.98c0,1.51,.4,1.91,1.76,1.91,1.74-.02,3.29-.9,3.29-3.09s-1.49-3.11-4.07-3.11h-.98v4.28Z"/><path class="cls-1" d="M26.98,76.33c-1.27,.08-1.76,.38-1.87,1.24-.06,.57-.11,1.47-.11,3.4v1.72c0,2.48-.38,4.26-1.61,5.54-.98,1.01-2.4,1.45-3.8,1.45-1.23,0-2.46-.29-3.39-1.01-1.27-.97-1.87-2.54-1.87-5v-5.23c0-1.89-.17-1.97-1.85-2.12v-.59h5.49v.59c-1.68,.1-1.84,.23-1.84,2.12v4.77c0,3.38,1.36,5.31,3.99,5.31,3.05,0,4.01-2.52,4.01-5.98v-1.58c0-1.93-.06-2.81-.15-3.46-.13-.82-.57-1.07-2.06-1.18v-.59h5.05v.59Z"/><path class="cls-1" d="M39.45,79c-.23-1.01-.42-1.53-.68-1.87-.34-.5-.7-.65-2.29-.65h-1.51v10.33c0,1.66,.17,1.87,2.18,1.99v.59h-6.09v-.59c1.93-.13,2.1-.34,2.1-1.99v-10.33h-1.31c-1.76,0-2.18,.17-2.46,.65-.25,.36-.42,.95-.68,1.87h-.62c.11-1.26,.21-2.62,.25-3.78h.42c.3,.48,.57,.52,1.17,.52h8.38c.57,0,.74-.13,1.08-.52h.45c0,.96,.11,2.5,.21,3.72l-.62,.06Z"/><path class="cls-1" d="M54.7,89.39v-.59c1.34-.17,1.53-.34,1.25-1.15-.28-.82-.7-1.95-1.17-3.23h-4.52c-.34,.95-.66,1.83-.93,2.71-.47,1.32-.28,1.53,1.31,1.68v.59h-4.6v-.59c1.34-.19,1.63-.31,2.38-2.16l4.39-11.02,.66-.19c1.31,3.61,2.74,7.6,4.09,11.25,.68,1.81,.96,2,2.33,2.12v.59h-5.2Zm-2.08-11.23h-.04c-.68,1.8-1.36,3.63-1.99,5.35h3.9l-1.87-5.35Z"/><path class="cls-1" d="M73.68,89.56c-.25,0-.49,0-.74-.02-1.59-.08-2.48-.54-3.44-1.91-.74-1.03-1.51-2.33-2.14-3.36-.36-.59-.72-.84-1.82-.84h-.68v3.34c0,1.79,.19,1.91,1.89,2.04v.59h-5.58v-.59c1.74-.13,1.93-.25,1.93-2.04v-8.44c0-1.79-.17-1.85-1.82-2v-.59h5.26c1.55,0,2.59,.19,3.39,.71,.85,.55,1.4,1.49,1.4,2.75,0,1.81-1.12,2.92-2.69,3.59,.36,.69,1.25,2.1,1.89,3.04,.76,1.09,1.19,1.64,1.72,2.18,.57,.63,1.06,.86,1.53,.99l-.08,.55Zm-7.8-6.82c1.08,0,1.78-.17,2.31-.59,.83-.63,1.17-1.47,1.17-2.6,0-2.27-1.51-3.11-3.12-3.11-.62,0-.98,.08-1.15,.21-.15,.1-.23,.36-.23,.92v5.16h1.02Z"/><path class="cls-1" d="M84.92,79c-.23-1.01-.42-1.53-.68-1.87-.34-.5-.7-.65-2.29-.65h-1.51v10.33c0,1.66,.17,1.87,2.18,1.99v.59h-6.09v-.59c1.93-.13,2.1-.34,2.1-1.99v-10.33h-1.32c-1.76,0-2.18,.17-2.46,.65-.25,.36-.42,.95-.68,1.87h-.62c.11-1.26,.21-2.62,.25-3.78h.42c.3,.48,.57,.52,1.17,.52h8.38c.57,0,.74-.13,1.08-.52h.45c0,.96,.11,2.5,.21,3.72l-.62,.06Z"/></g></g></g></svg>