<?xml version="1.0" encoding="UTF-8"?><svg id="_圖層_2" xmlns="http://www.w3.org/2000/svg" viewBox="0 0 99.22 14.28"><defs><style>.cls-1{fill:#1b1b1b;}</style></defs><g id="_圖層_1-2"><g><path class="cls-1" d="M10.03,13.96c-1.63-1.83-3.35-3.88-5.26-6.11-.49-.57-.78-.65-1.14-.59v3.99c0,1.85,.21,1.99,1.95,2.12v.59H.06v-.59c1.61-.13,1.8-.27,1.8-2.12V3.04C1.87,1.13,1.68,1.03,0,.9V.31H5.47V.9c-1.63,.13-1.84,.27-1.84,2.14v3.67c.47-.13,.89-.42,1.48-.97,1.17-1.11,2.61-2.56,3.56-3.72,.62-.76,.62-.97-.36-1.07l-.47-.06V.31h5.09V.9c-1.61,.15-2.1,.36-3.46,1.57-.81,.73-2.31,2.23-3.75,3.67,1.61,1.97,3.92,4.58,4.98,5.71,1.12,1.2,1.55,1.39,2.59,1.51v.59h-3.27Z"/><path class="cls-1" d="M20.83,0c3.58,0,6.83,2.77,6.83,6.97,0,4.54-3.2,7.31-7.08,7.31s-6.89-2.96-6.89-6.99c0-3.78,2.67-7.29,7.13-7.29h.02Zm-.47,.76c-2.35,0-4.52,2.02-4.52,5.94s2.18,6.82,5.18,6.82c2.35,0,4.47-1.95,4.47-5.98,0-4.43-2.33-6.78-5.11-6.78h-.02Z"/><path class="cls-1" d="M37.16,0c3.58,0,6.83,2.77,6.83,6.97,0,4.54-3.2,7.31-7.08,7.31s-6.89-2.96-6.89-6.99c0-3.78,2.67-7.29,7.13-7.29h.02Zm-.47,.76c-2.35,0-4.52,2.02-4.52,5.94s2.18,6.82,5.17,6.82c2.35,0,4.48-1.95,4.48-5.98,0-4.43-2.33-6.78-5.11-6.78h-.02Z"/><path class="cls-1" d="M58.14,14.13c-.25,0-.49,0-.74-.02-1.59-.08-2.48-.55-3.44-1.91-.74-1.03-1.51-2.33-2.14-3.36-.36-.59-.72-.84-1.82-.84h-.68v3.34c0,1.78,.19,1.91,1.89,2.04v.59h-5.58v-.59c1.74-.13,1.93-.25,1.93-2.04V2.9c0-1.78-.17-1.85-1.82-1.99V.31h5.26c1.55,0,2.59,.19,3.39,.71,.85,.55,1.4,1.49,1.4,2.75,0,1.81-1.12,2.92-2.69,3.59,.36,.69,1.25,2.1,1.89,3.04,.76,1.09,1.19,1.64,1.72,2.18,.57,.63,1.06,.86,1.53,.99l-.08,.55Zm-7.81-6.82c1.08,0,1.78-.17,2.31-.59,.83-.63,1.17-1.47,1.17-2.6,0-2.27-1.51-3.11-3.12-3.11-.62,0-.98,.08-1.15,.21-.15,.1-.23,.36-.23,.92V7.31h1.02Z"/><path class="cls-1" d="M67.28,13.96v-.59c1.34-.17,1.53-.34,1.25-1.15-.28-.82-.7-1.95-1.17-3.23h-4.52c-.34,.94-.66,1.83-.93,2.71-.47,1.32-.28,1.53,1.31,1.68v.59h-4.6v-.59c1.34-.19,1.63-.31,2.38-2.16L65.39,.19l.66-.19c1.32,3.61,2.74,7.6,4.09,11.25,.68,1.81,.96,1.99,2.33,2.12v.59h-5.2Zm-2.08-11.23h-.04c-.68,1.81-1.36,3.63-1.99,5.35h3.9l-1.87-5.35Z"/><path class="cls-1" d="M87.04,8.21c-1.27,.19-1.36,.29-1.36,1.53v1.78c0,.73,.02,1.41,.15,1.97-1.31,.31-3.05,.78-4.75,.78-4.67,0-7.78-2.88-7.78-7.03,0-4.87,3.95-7.24,8.1-7.24,1.76,0,3.39,.46,4.07,.61,.06,.73,.17,1.89,.34,3.28l-.59,.13c-.51-2.56-2.12-3.25-4.14-3.25-3.25,0-5.62,2.35-5.62,6.24,0,3.02,1.8,6.55,5.9,6.55,.72,0,1.38-.15,1.84-.38,.42-.23,.68-.48,.68-1.36v-1.78c0-1.51-.15-1.64-2.23-1.81v-.57h5.39v.57Z"/><path class="cls-1" d="M99.22,10.65c-.13,.69-.55,2.67-.74,3.32h-10.22v-.59c1.93-.15,2.1-.31,2.1-2.02V3c0-1.89-.17-1.95-1.82-2.1V.31h9.46c0,.52,.11,1.95,.17,3.02l-.62,.1c-.19-.88-.4-1.34-.68-1.81-.3-.44-.87-.59-2.4-.59h-1.61c-.66,0-.7,.04-.7,.67V6.49h1.99c1.91,0,2.01-.17,2.29-1.57h.61v4.03h-.61c-.28-1.51-.42-1.64-2.27-1.64h-2.02v3.97c0,.99,.13,1.43,.51,1.7,.4,.25,1.14,.27,2.21,.27,1.61,0,2.21-.17,2.67-.71,.36-.42,.76-1.13,1.04-1.97l.64,.08Z"/></g></g></svg>