<svg width="105" height="15" viewBox="0 0 105 15" fill="none" xmlns="http://www.w3.org/2000/svg">
<path d="M10.03 13.96C8.4 12.13 6.68 10.08 4.77 7.85C4.28 7.29 3.99 7.2 3.63 7.26V11.25C3.63 13.1 3.84 13.24 5.58 13.37V13.96H0.06V13.37C1.67 13.24 1.86 13.1 1.86 11.25V3.04C1.87 1.13 1.68 1.03 0 0.899998V0.309998H5.47V0.899998C3.84 1.03 3.63 1.18 3.63 3.04V6.71C4.09 6.59 4.52 6.3 5.11 5.75C6.28 4.64 7.72 3.19 8.67 2.03C9.29 1.27 9.29 1.06 8.31 0.959998L7.85 0.899998V0.309998H12.94V0.899998C11.33 1.05 10.84 1.26 9.48 2.47C8.67 3.21 7.17 4.7 5.73 6.15C7.34 8.12 9.65 10.73 10.71 11.86C11.83 13.06 12.26 13.25 13.3 13.37V13.96H10.03Z" fill="#231815"/>
<path d="M20.83 0C24.41 0 27.66 2.77 27.66 6.97C27.66 11.51 24.46 14.28 20.58 14.28C16.74 14.28 13.69 11.32 13.69 7.29C13.69 3.51 16.36 0 20.82 0H20.83V0ZM20.36 0.76C18.01 0.76 15.84 2.78 15.84 6.7C15.84 10.65 18.02 13.52 21.02 13.52C23.37 13.52 25.5 11.57 25.5 7.54C25.5 3.11 23.17 0.76 20.39 0.76H20.36Z" fill="#231815"/>
<path d="M37.16 0C40.74 0 43.99 2.77 43.99 6.97C43.99 11.51 40.79 14.28 36.91 14.28C33.07 14.28 30.02 11.32 30.02 7.29C30.02 3.51 32.69 0 37.15 0H37.16V0ZM36.69 0.76C34.34 0.76 32.17 2.78 32.17 6.7C32.17 10.65 34.35 13.52 37.35 13.52C39.7 13.52 41.83 11.57 41.83 7.54C41.83 3.11 39.5 0.76 36.72 0.76H36.69Z" fill="#231815"/>
<path d="M57.39 13.96V13.37C59.11 13.2 59.19 13.1 59.17 10.87L59.11 2.3H59.03L53.86 13.81H53.44L48.68 2.6H48.64L48.32 8.58C48.24 10.3 48.24 11.23 48.26 12.07C48.3 13.08 48.81 13.22 50.21 13.37V13.96H45.27V13.37C46.5 13.22 46.92 12.99 47.07 12.11C47.18 11.38 47.3 10.45 47.47 8.27L47.77 3.9C47.96 1.17 47.85 1.09 45.92 0.899998V0.309998H49.4L54.24 10.81L59.14 0.309998H62.75V0.899998C60.88 1.07 60.73 1.11 60.8 3.27L61.01 10.87C61.07 13.1 61.14 13.2 62.98 13.37V13.96H57.39Z" fill="#231815"/>
<path d="M72.79 13.96V13.37C74.13 13.2 74.32 13.03 74.04 12.22C73.76 11.41 73.34 10.27 72.87 8.99H68.35C68.01 9.93 67.69 10.82 67.42 11.7C66.95 13.02 67.14 13.23 68.73 13.38V13.97H64.13V13.38C65.47 13.19 65.76 13.07 66.51 11.22L70.9 0.19L71.56 0C72.87 3.61 74.3 7.6 75.65 11.25C76.33 13.06 76.6 13.24 77.98 13.37V13.96H72.79ZM70.71 2.73H70.67C69.99 4.54 69.31 6.36 68.68 8.08H72.58L70.71 2.73Z" fill="#231815"/>
<path d="M92.56 8.21C91.29 8.4 91.2 8.5 91.2 9.74V11.52C91.2 12.25 91.22 12.93 91.35 13.49C90.04 13.8 88.3 14.27 86.6 14.27C81.93 14.27 78.82 11.39 78.82 7.24C78.82 2.37 82.77 0 86.92 0C88.68 0 90.31 0.46 90.99 0.61C91.05 1.34 91.16 2.5 91.33 3.89L90.74 4.02C90.23 1.46 88.62 0.77 86.6 0.77C83.35 0.77 80.98 3.12 80.98 7.01C80.98 10.03 82.78 13.56 86.88 13.56C87.6 13.56 88.26 13.41 88.73 13.18C89.15 12.95 89.41 12.7 89.41 11.82V10.04C89.41 8.53 89.26 8.4 87.18 8.23V7.64H92.57V8.21H92.56Z" fill="#231815"/>
<path d="M104.73 10.65C104.6 11.34 104.18 13.32 103.99 13.97H93.77V13.38C95.7 13.23 95.87 13.07 95.87 11.36V3C95.87 1.11 95.7 1.05 94.05 0.899998V0.309998H103.51C103.51 0.829998 103.62 2.26 103.68 3.33L103.06 3.43C102.87 2.55 102.66 2.09 102.38 1.62C102.08 1.18 101.51 1.03 99.98 1.03H98.37C97.71 1.03 97.67 1.07 97.67 1.7V6.47H99.66C101.57 6.47 101.68 6.3 101.95 4.9H102.56V8.93H101.95C101.67 7.42 101.53 7.29 99.68 7.29H97.66V11.26C97.66 12.25 97.79 12.69 98.17 12.96C98.57 13.21 99.32 13.23 100.38 13.23C101.99 13.23 102.59 13.06 103.05 12.52C103.41 12.1 103.81 11.39 104.09 10.55L104.73 10.65Z" fill="#231815"/>
</svg>
