<?xml version="1.0" encoding="UTF-8"?><svg id="_圖層_2" xmlns="http://www.w3.org/2000/svg" xmlns:xlink="http://www.w3.org/1999/xlink" viewBox="0 0 42.79 29.45"><defs><style>.cls-1{clip-path:url(#clippath);}.cls-2{fill:gray;}.cls-3{fill:none;stroke:#b3b3b3;stroke-miterlimit:10;stroke-width:.75px;}</style><clipPath id="clippath"><path class="cls-2" d="M21.91,12.96c-.02,1.36,1.22,2.12,2.14,2.58,.95,.46,1.27,.76,1.27,1.18,0,.64-.76,.92-1.47,.93-1.23,.02-1.95-.33-2.51-.6l-.44,2.07c.57,.26,1.63,.49,2.72,.5,2.57,0,4.26-1.27,4.26-3.24,.01-2.5-3.46-2.64-3.43-3.75,0-.34,.33-.7,1.04-.79,.35-.05,1.32-.08,2.41,.42l.43-2.01c-.59-.21-1.35-.42-2.29-.42-2.42,0-4.12,1.29-4.14,3.13m10.57-2.96c-.47,0-.87,.27-1.04,.69l-3.67,8.77h2.57l.51-1.41h3.14l.3,1.41h2.27l-1.98-9.47h-2.09m.36,2.56l.74,3.56h-2.03l1.29-3.56m-14.04-2.56l-2.03,9.47h2.45l2.03-9.47h-2.45m-3.62,0l-2.55,6.44-1.03-5.48c-.12-.61-.6-.96-1.13-.96H6.3l-.06,.27c.86,.19,1.83,.49,2.42,.81,.36,.2,.46,.37,.58,.83l1.95,7.56h2.59l3.97-9.47h-2.57"/></clipPath></defs><g id="_圖層_1-2"><g><g><path class="cls-2" d="M21.91,12.96c-.02,1.36,1.22,2.12,2.14,2.58,.95,.46,1.27,.76,1.27,1.18,0,.64-.76,.92-1.47,.93-1.23,.02-1.95-.33-2.51-.6l-.44,2.07c.57,.26,1.63,.49,2.72,.5,2.57,0,4.26-1.27,4.26-3.24,.01-2.5-3.46-2.64-3.43-3.75,0-.34,.33-.7,1.04-.79,.35-.05,1.32-.08,2.41,.42l.43-2.01c-.59-.21-1.35-.42-2.29-.42-2.42,0-4.12,1.29-4.14,3.13m10.57-2.96c-.47,0-.87,.27-1.04,.69l-3.67,8.77h2.57l.51-1.41h3.14l.3,1.41h2.27l-1.98-9.47h-2.09m.36,2.56l.74,3.56h-2.03l1.29-3.56m-14.04-2.56l-2.03,9.47h2.45l2.03-9.47h-2.45m-3.62,0l-2.55,6.44-1.03-5.48c-.12-.61-.6-.96-1.13-.96H6.3l-.06,.27c.86,.19,1.83,.49,2.42,.81,.36,.2,.46,.37,.58,.83l1.95,7.56h2.59l3.97-9.47h-2.57"/><g class="cls-1"><path class="cls-2" d="M3.06,11L32.93,0l6.79,18.45L9.86,29.45"/></g></g><rect class="cls-3" x=".38" y="2.19" width="42.04" height="25.08" rx="3" ry="3"/></g></g></svg>