<?xml version="1.0" encoding="UTF-8"?><svg id="_圖層_2" xmlns="http://www.w3.org/2000/svg" viewBox="0 0 41.34 24.98"><defs><style>.cls-1{fill:gray;}</style></defs><g id="_圖層_1-2"><g><path class="cls-1" d="M33.79,9.25l-2.03,2.12-1.96-2.12h-6.42v6.48h6.32l2.04-2.15,1.96,2.15h2.05l-2.99-3.22,2.99-3.26h-1.96Zm-4.9,5.14h-3.93v-1.29h3.5v-1.32h-3.5v-1.18h0s4.01,0,4.01,0l1.75,1.89-1.83,1.9Z"/><path class="cls-1" d="M38.75,0H2.58C1.16,0,0,1.16,0,2.58V22.39c0,1.43,1.16,2.58,2.58,2.58H38.75c1.43,0,2.58-1.16,2.58-2.58V2.58c0-1.43-1.16-2.58-2.58-2.58Zm0,17.01h-5.75s-1.27-1.41-1.27-1.41l-1.36,1.4h-11.19v-1.12l-.48,1.12h-2.78l-.48-1.1v1.1h-5.38l-.61-1.44h-1.38l-.61,1.44H2.58L6.67,7.97h4.17l.54,1.06v-1.06h4.88l1.07,2.33,1.05-2.33h12.17l1.23,1.38,1.32-1.38h5.66l-4.1,4.54,4.1,4.5Z"/><path class="cls-1" d="M17.4,13.64l-2.09-4.39h-2.61v6.13l-2.71-6.13h-2.38s-2.86,6.48-2.86,6.48h1.74l.62-1.45h3.33l.62,1.45h3.25v-5.08l2.32,5.08h1.41l2.3-5.08v5.08h1.59v-6.48h-2.6l-1.93,4.39Zm-9.73-.71l1.1-2.59,1.1,2.59h-2.19Z"/></g></g></svg>