<?xml version="1.0" encoding="UTF-8"?><svg id="_圖層_2" xmlns="http://www.w3.org/2000/svg" viewBox="0 0 42.79 25.83"><defs><style>.cls-1{fill:gray;}.cls-2{fill:none;stroke:#b3b3b3;stroke-miterlimit:10;stroke-width:.75px;}</style></defs><g id="_圖層_1-2"><g><path class="cls-1" d="M11.49,8.16c-.37,.43-.95,.77-1.54,.73-.07-.59,.21-1.21,.55-1.59,.37-.44,1.01-.76,1.52-.79,.06,.61-.18,1.21-.54,1.65m.53,.84c-.85-.05-1.57,.48-1.98,.48s-1.02-.46-1.69-.44c-.87,.01-1.68,.51-2.13,1.29-.91,1.57-.24,3.9,.65,5.18,.43,.63,.95,1.33,1.63,1.3,.65-.02,.9-.42,1.68-.42s1.01,.42,1.69,.41c.71-.01,1.15-.63,1.58-1.27,.49-.72,.69-1.42,.71-1.46-.01-.01-1.37-.53-1.38-2.09-.01-1.3,1.07-1.93,1.12-1.96-.61-.9-1.56-1-1.89-1.02m4.89-1.77v9.5h1.48v-3.25h2.04c1.87,0,3.18-1.28,3.18-3.13s-1.29-3.12-3.13-3.12h-3.57Zm1.48,1.24h1.7c1.28,0,2.01,.68,2.01,1.88s-.73,1.89-2.02,1.89h-1.69v-3.77Zm7.91,8.33c.93,0,1.79-.47,2.18-1.21h.03v1.14h1.37v-4.73c0-1.37-1.1-2.26-2.79-2.26-1.57,0-2.72,.9-2.77,2.13h1.33c.11-.59,.65-.97,1.4-.97,.9,0,1.41,.42,1.41,1.19v.52l-1.84,.11c-1.71,.1-2.64,.8-2.64,2.02s.96,2.05,2.33,2.05Zm.4-1.13c-.79,0-1.29-.38-1.29-.96s.48-.94,1.4-1l1.64-.1v.54c0,.89-.76,1.52-1.76,1.52Zm5,3.64c1.44,0,2.12-.55,2.71-2.21l2.59-7.27h-1.5l-1.74,5.61h-.03l-1.74-5.61h-1.54l2.5,6.92-.13,.42c-.23,.71-.59,.99-1.24,.99-.12,0-.34-.01-.43-.02v1.14c.09,.02,.45,.04,.56,.04h0Z"/><rect class="cls-2" x=".38" y=".38" width="42.04" height="25.08" rx="3" ry="3"/></g></g></svg>