<?xml version="1.0" encoding="UTF-8"?><svg id="_圖層_2" xmlns="http://www.w3.org/2000/svg" viewBox="0 0 42.79 25.83"><defs><style>.cls-1{fill:#919191;}.cls-2{fill:#737373;}.cls-3{fill:#a8a8a8;}.cls-4{fill:none;stroke:#b3b3b3;stroke-miterlimit:10;stroke-width:.75px;}</style></defs><g id="_圖層_1-2"><g><g><path class="cls-1" d="M24.84,19.11h-6.9V6.71h6.9v12.4Z"/><path class="cls-2" d="M18.38,12.91c0-2.52,1.18-4.76,3.01-6.2-1.39-1.09-3.11-1.69-4.87-1.69-4.36,0-7.89,3.53-7.89,7.89s3.53,7.89,7.89,7.89c1.77,0,3.49-.59,4.87-1.69-1.83-1.44-3.01-3.69-3.01-6.2"/><path class="cls-3" d="M34.15,12.91c0,4.36-3.53,7.89-7.89,7.89-1.77,0-3.49-.59-4.87-1.69,1.83-1.44,3.01-3.69,3.01-6.2s-1.18-4.76-3.01-6.2c1.39-1.09,3.11-1.69,4.87-1.69,4.36,0,7.89,3.53,7.89,7.89"/></g><rect class="cls-4" x=".38" y=".38" width="42.04" height="25.08" rx="3" ry="3"/></g></g></svg>