<?xml version="1.0" encoding="UTF-8"?><svg id="_圖層_2" xmlns="http://www.w3.org/2000/svg" viewBox="0 0 25.96 25.79"><defs><style>.cls-1{fill:gray;}</style></defs><g id="_圖層_1-2"><g><path class="cls-1" d="M6.34,14c-.67,.08-1.84,.33-2.51,.92-2.01,1.76-.84,4.86,3.27,4.86,2.34,0,4.69-1.51,6.53-3.85-2.68-1.26-4.86-2.18-7.29-1.93h0s0,0,0,0Z"/><path class="cls-1" d="M21.36,16.16c3.77,1.26,4.61,1.34,4.61,1.34V4.1c0-2.26-1.84-4.1-4.19-4.1H4.19C1.93,0,0,1.84,0,4.1V21.69c0,2.26,1.84,4.1,4.19,4.1H21.77c2.26,0,4.19-1.84,4.19-4.1v-.17s-6.7-2.76-10.13-4.44c-2.26,2.76-5.19,4.52-8.29,4.52-5.19,0-6.95-4.52-4.44-7.45,.5-.67,1.42-1.26,2.85-1.59,2.18-.5,5.69,.33,8.96,1.42,.59-1.09,1.09-2.26,1.42-3.52H6.2v-1h5.19v-2.01H5.03v-1h6.36V3.85s0-.42,.42-.42h2.51v3.1h6.28v.92h-6.28v1.84h5.11c-.5,2.01-1.26,3.85-2.18,5.44,1.67,.59,3.1,1.09,4.1,1.42h0Z"/></g></g></svg>