<?xml version="1.0" encoding="UTF-8"?><svg id="_圖層_2" xmlns="http://www.w3.org/2000/svg" viewBox="0 0 16.15 13.12"><defs><style>.cls-1{fill:#adadad;}</style></defs><g id="_圖層_1-2"><path class="cls-1" d="M16.15,1.55c-.6,.26-1.23,.44-1.9,.52,.68-.41,1.21-1.06,1.46-1.83-.64,.38-1.35,.65-2.1,.8-.6-.64-1.47-1.05-2.42-1.05-1.83,0-3.31,1.48-3.31,3.31,0,.26,.03,.51,.09,.76-2.75-.14-5.19-1.46-6.83-3.46-.29,.49-.45,1.06-.45,1.67,0,1.15,.58,2.16,1.47,2.76-.54-.02-1.05-.17-1.5-.42v.04c0,1.61,1.14,2.94,2.66,3.25-.28,.08-.57,.12-.87,.12-.21,0-.42-.02-.62-.06,.42,1.32,1.65,2.28,3.1,2.3-1.13,.89-2.56,1.42-4.11,1.42-.27,0-.53-.02-.79-.05,1.47,.94,3.21,1.49,5.08,1.49,6.09,0,9.43-5.05,9.43-9.43,0-.14,0-.29,0-.43,.65-.47,1.21-1.05,1.65-1.72Z"/></g></svg>