<?xml version="1.0" encoding="UTF-8"?><svg id="_圖層_2" xmlns="http://www.w3.org/2000/svg" viewBox="0 0 17.89 13.01"><defs><style>.cls-1{fill:#adadad;}</style></defs><g id="_圖層_1-2"><path class="cls-1" d="M17.49,2.21c-.18-.91-.94-1.6-1.87-1.73-1.52-.22-3.93-.48-6.69-.48S3.7,.26,2.23,.48c-.94,.13-1.7,.82-1.87,1.73-.18,1-.36,2.47-.36,4.29s.18,3.3,.36,4.29c.18,.91,.94,1.6,1.87,1.73,1.52,.22,3.97,.48,6.69,.48s5.22-.26,6.69-.48c.94-.13,1.7-.82,1.87-1.73,.18-1,.36-2.47,.4-4.29,0-1.82-.22-3.3-.4-4.29Zm-5.37,4.61l-4.62,3.08c-.25,.17-.59-.01-.59-.32V3.43c0-.3,.34-.48,.59-.31l4.62,3.08c.22,.15,.22,.48,0,.63Z"/></g></svg>